<svg xmlns="http://www.w3.org/2000/svg" width="24" height="22" viewBox="0 0 24 22">
  <metadata><?xpacket begin="﻿" id="W5M0MpCehiHzreSzNTczkc9d"?>
<x:xmpmeta xmlns:x="adobe:ns:meta/" x:xmptk="Adobe XMP Core 5.6-c138 79.159824, 2016/09/14-01:09:01        ">
   <rdf:RDF xmlns:rdf="http://www.w3.org/1999/02/22-rdf-syntax-ns#">
      <rdf:Description rdf:about=""/>
   </rdf:RDF>
</x:xmpmeta>
                                                                                                    
                                                                                                    
                                                                                                    
                                                                                                    
                                                                                                    
                                                                                                    
                                                                                                    
                                                                                                    
                                                                                                    
                                                                                                    
                                                                                                    
                                                                                                    
                                                                                                    
                                                                                                    
                                                                                                    
                                                                                                    
                                                                                                    
                                                                                                    
                                                                                                    
                                                                                                    
                           
<?xpacket end="w"?></metadata>
<defs>
    <style>
      .cls-1 {
        fill: #4a5e6e;
        fill-rule: evenodd;
      }
    </style>
  </defs>
  <path id="homepage" class="cls-1" d="M1582,25h20a2,2,0,0,1,2,2V41a2,2,0,0,1-2,2h-20a2,2,0,0,1-2-2V27A2,2,0,0,1,1582,25Zm5,20h10a1,1,0,0,1,0,2h-10A1,1,0,0,1,1587,45Zm2-2h6v2h-6V43Zm-6-16h18a1,1,0,0,1,1,1V40a1,1,0,0,1-1,1h-18a1,1,0,0,1-1-1V28A1,1,0,0,1,1583,27Zm1,1h16a1,1,0,0,1,1,1V39a1,1,0,0,1-1,1h-16a1,1,0,0,1-1-1V29A1,1,0,0,1,1584,28Zm9.86,4.2a0.245,0.245,0,0,1,.13.279,0.264,0.264,0,0,1-.2.241l-1.62.454,2.37,2.8a0.27,0.27,0,0,1,.06.21,0.3,0.3,0,0,1-.11.19l-0.66.532a0.292,0.292,0,0,1-.21.058,0.28,0.28,0,0,1-.19-0.1l-2.3-2.709-0.97,1.709a0.289,0.289,0,0,1-.17.135,0.286,0.286,0,0,1-.11.006,0.257,0.257,0,0,1-.23-0.206L1589,30.354a0.277,0.277,0,0,1,.11-0.3,0.282,0.282,0,0,1,.09-0.05,0.245,0.245,0,0,1,.21.028l4.45,2.17h0Z" transform="translate(-1580 -25)"/>
</svg>
