<svg xmlns="http://www.w3.org/2000/svg" width="7.656" height="7.656" viewBox="0 0 7.656 7.656">
  <metadata><?xpacket begin="﻿" id="W5M0MpCehiHzreSzNTczkc9d"?>
<x:xmpmeta xmlns:x="adobe:ns:meta/" x:xmptk="Adobe XMP Core 5.6-c138 79.159824, 2016/09/14-01:09:01        ">
   <rdf:RDF xmlns:rdf="http://www.w3.org/1999/02/22-rdf-syntax-ns#">
      <rdf:Description rdf:about=""/>
   </rdf:RDF>
</x:xmpmeta>
                                                                                                    
                                                                                                    
                                                                                                    
                                                                                                    
                                                                                                    
                                                                                                    
                                                                                                    
                                                                                                    
                                                                                                    
                                                                                                    
                                                                                                    
                                                                                                    
                                                                                                    
                                                                                                    
                                                                                                    
                                                                                                    
                                                                                                    
                                                                                                    
                                                                                                    
                                                                                                    
                           
<?xpacket end="w"?></metadata>
<defs>
    <style>
      .cls-1 {
        fill: #c4ced6;
        fill-rule: evenodd;
      }
    </style>
  </defs>
  <path id="ico14" class="cls-1" d="M487.879,106.464l5.656,5.657a1,1,0,0,1,0,1.415h0a1,1,0,0,1-1.414,0l-5.657-5.657a1,1,0,0,1,0-1.415h0A1,1,0,0,1,487.879,106.464Zm5.656,0h0a1,1,0,0,1,0,1.415l-5.656,5.657a1,1,0,0,1-1.415,0h0a1,1,0,0,1,0-1.415l5.657-5.657A1,1,0,0,1,493.535,106.464Z" transform="translate(-486.188 -106.188)"/>
</svg>
