<svg xmlns="http://www.w3.org/2000/svg" width="24" height="18" viewBox="0 0 24 18">
  <metadata><?xpacket begin="﻿" id="W5M0MpCehiHzreSzNTczkc9d"?>
<x:xmpmeta xmlns:x="adobe:ns:meta/" x:xmptk="Adobe XMP Core 5.6-c138 79.159824, 2016/09/14-01:09:01        ">
   <rdf:RDF xmlns:rdf="http://www.w3.org/1999/02/22-rdf-syntax-ns#">
      <rdf:Description rdf:about=""/>
   </rdf:RDF>
</x:xmpmeta>
                                                                                                    
                                                                                                    
                                                                                                    
                                                                                                    
                                                                                                    
                                                                                                    
                                                                                                    
                                                                                                    
                                                                                                    
                                                                                                    
                                                                                                    
                                                                                                    
                                                                                                    
                                                                                                    
                                                                                                    
                                                                                                    
                                                                                                    
                                                                                                    
                                                                                                    
                                                                                                    
                           
<?xpacket end="w"?></metadata>
<defs>
    <style>
      .cls-1 {
        fill: #4a5e6e;
        fill-rule: evenodd;
      }
    </style>
  </defs>
  <path id="email" class="cls-1" d="M1706,30.286a3.241,3.241,0,0,0-.41-1.577l-7.79,6.668,7.85,7.812a3.317,3.317,0,0,0,.35-1.475V30.286Zm-9.77,6.441-1.55,1.328a1.061,1.061,0,0,1-.68.249,1.027,1.027,0,0,1-.68-0.256l-1.53-1.335-7.97,7.936a3.274,3.274,0,0,0,1.48.351h17.4a3.307,3.307,0,0,0,1.48-.351Zm-2.22-.823,10.05-8.609a3.238,3.238,0,0,0-1.36-.3h-17.4a3.324,3.324,0,0,0-1.23.235Zm-11.54-7.317a3.241,3.241,0,0,0-.47,1.7V41.714a3.317,3.317,0,0,0,.35,1.475l7.87-7.839Z" transform="translate(-1682 -27)"/>
</svg>
