<svg xmlns="http://www.w3.org/2000/svg" width="22" height="18" viewBox="0 0 22 18">
  <metadata><?xpacket begin="﻿" id="W5M0MpCehiHzreSzNTczkc9d"?>
<x:xmpmeta xmlns:x="adobe:ns:meta/" x:xmptk="Adobe XMP Core 5.6-c138 79.159824, 2016/09/14-01:09:01        ">
   <rdf:RDF xmlns:rdf="http://www.w3.org/1999/02/22-rdf-syntax-ns#">
      <rdf:Description rdf:about=""/>
   </rdf:RDF>
</x:xmpmeta>
                                                                                                    
                                                                                                    
                                                                                                    
                                                                                                    
                                                                                                    
                                                                                                    
                                                                                                    
                                                                                                    
                                                                                                    
                                                                                                    
                                                                                                    
                                                                                                    
                                                                                                    
                                                                                                    
                                                                                                    
                                                                                                    
                                                                                                    
                                                                                                    
                                                                                                    
                                                                                                    
                           
<?xpacket end="w"?></metadata>
<defs>
    <style>
      .cls-1 {
        fill: #b9bcc5;
        fill-rule: evenodd;
      }
    </style>
  </defs>
  <path id="na1" class="cls-1" d="M48.693,112H33.306A3.287,3.287,0,0,0,30,115.259v11.482a3.28,3.28,0,0,0,3.112,3.249c0.064,0,.128.01,0.194,0.01H48.693a3.315,3.315,0,0,0,1.763-.507,3.41,3.41,0,0,0,.386-0.282A3.233,3.233,0,0,0,52,126.741V115.262A3.288,3.288,0,0,0,48.693,112Zm-13.678,3a2,2,0,1,1-2,2A2,2,0,0,1,35.015,115Zm13.441,11.991H33.422a0.473,0.473,0,0,1-.38-0.7l2.369-4.592a0.869,0.869,0,0,1,1.564,0l1.626,3.056a0.825,0.825,0,0,0,1.484,0l3.339-6.267a0.869,0.869,0,0,1,1.564,0l3.943,7.637a0.588,0.588,0,0,1-.474.871h0Z" transform="translate(-30 -112)"/>
</svg>
