<svg xmlns="http://www.w3.org/2000/svg" width="20" height="22" viewBox="0 0 20 22">
  <metadata><?xpacket begin="﻿" id="W5M0MpCehiHzreSzNTczkc9d"?>
<x:xmpmeta xmlns:x="adobe:ns:meta/" x:xmptk="Adobe XMP Core 5.6-c138 79.159824, 2016/09/14-01:09:01        ">
   <rdf:RDF xmlns:rdf="http://www.w3.org/1999/02/22-rdf-syntax-ns#">
      <rdf:Description rdf:about=""/>
   </rdf:RDF>
</x:xmpmeta>
                                                                                                    
                                                                                                    
                                                                                                    
                                                                                                    
                                                                                                    
                                                                                                    
                                                                                                    
                                                                                                    
                                                                                                    
                                                                                                    
                                                                                                    
                                                                                                    
                                                                                                    
                                                                                                    
                                                                                                    
                                                                                                    
                                                                                                    
                                                                                                    
                                                                                                    
                                                                                                    
                           
<?xpacket end="w"?></metadata>
<defs>
    <style>
      .cls-1 {
        fill: #b9bcc5;
        fill-rule: evenodd;
      }
    </style>
  </defs>
  <path id="na2" class="cls-1" d="M41,597a3.043,3.043,0,0,0-1.479.35l-7.04,4.051A3.266,3.266,0,0,0,31,603.95v8.1a3.266,3.266,0,0,0,1.479,2.551l7.039,4.051a3.3,3.3,0,0,0,2.957,0l7.039-4.051A3.266,3.266,0,0,0,51,612.05v-8.1a3.266,3.266,0,0,0-1.478-2.551L42.48,597.35A3.021,3.021,0,0,0,41,597Zm6.015,7a1.011,1.011,0,0,0-.488.126l-6.023,3.712a0.925,0.925,0,0,0-.294,1.3,1,1,0,0,0,1.27.329l6.023-3.712a0.925,0.925,0,0,0,.363-1.286A0.984,0.984,0,0,0,47.017,604Zm-12.03.015a0.958,0.958,0,0,0-.981.933,0.937,0.937,0,0,0,.493.826l6.023,3.712a1,1,0,0,0,1.332-.346,0.925,0.925,0,0,0-.358-1.287l-6.023-3.712A1,1,0,0,0,34.987,604.017Zm6.007,3.72a0.959,0.959,0,0,0-.976.942h0v5.391a0.977,0.977,0,0,0,1.952,0v-5.391a0.959,0.959,0,0,0-.976-0.942h0Z" transform="translate(-31 -597)"/>
</svg>
