<svg xmlns="http://www.w3.org/2000/svg" width="21.812" height="20" viewBox="0 0 21.812 20">
  <metadata><?xpacket begin="﻿" id="W5M0MpCehiHzreSzNTczkc9d"?>
<x:xmpmeta xmlns:x="adobe:ns:meta/" x:xmptk="Adobe XMP Core 5.6-c138 79.159824, 2016/09/14-01:09:01        ">
   <rdf:RDF xmlns:rdf="http://www.w3.org/1999/02/22-rdf-syntax-ns#">
      <rdf:Description rdf:about=""/>
   </rdf:RDF>
</x:xmpmeta>
                                                                                                    
                                                                                                    
                                                                                                    
                                                                                                    
                                                                                                    
                                                                                                    
                                                                                                    
                                                                                                    
                                                                                                    
                                                                                                    
                                                                                                    
                                                                                                    
                                                                                                    
                                                                                                    
                                                                                                    
                                                                                                    
                                                                                                    
                                                                                                    
                                                                                                    
                                                                                                    
                           
<?xpacket end="w"?></metadata>
<defs>
    <style>
      .cls-1 {
        fill: #b9bcc5;
        fill-rule: evenodd;
      }
    </style>
  </defs>
  <path id="na4" class="cls-1" d="M34.807,923.964l-4.475-8a1.972,1.972,0,0,1,0-1.928l4.475-8A2.04,2.04,0,0,1,36.589,905H45.37a2.04,2.04,0,0,1,1.782,1.036l4.474,8a1.971,1.971,0,0,1,0,1.928l-4.474,8A2.04,2.04,0,0,1,45.37,925H36.589A2.04,2.04,0,0,1,34.807,923.964ZM41,912.014A2.988,2.988,0,1,1,37.988,915h0A3,3,0,0,1,41,912.014h0M40.988,910a5,5,0,1,0,5,5A5,5,0,0,0,40.988,910Z" transform="translate(-30.094 -905)"/>
</svg>
